# xmcd
#
# Track frame offsets: 
#        150
#        21210
#        39150
#        59305
#        72405
#        97805
#        130337
#        151657
#        173727
#        188995
#        213555
#
# Disc length: 3125 seconds
#
# Revision: 3
# Processed by: cddbd v1.5.2PL0 Copyright (c) Steve Scherf et al.
# Submitted via: ExactAudioCopy v0.99pb1
#
DISCID=8d0c330b
DTITLE=Dodo Hug 2te - kiné kinà kinò?
DYEAR=2003
DGENRE=CH-Blues
TTITLE0=Kiné kinà kinò
TTITLE1=AwWoman's success
TTITLE2=Schmusen
TTITLE3=D' Silenerbüebe
TTITLE4=Mondtamburin
TTITLE5=Die Kraken
TTITLE6=Ungerwäut
TTITLE7=Swiss Performance Index -S.P.I.
TTITLE8=Menschen aus der Tube
TTITLE9=Wintergarte
TTITLE10=Kiné kinà kinò? - Remix
EXTD=
EXTT0=
EXTT1=
EXTT2=
EXTT3=
EXTT4=
EXTT5=
EXTT6=
EXTT7=
EXTT8=
EXTT9=
EXTT10=
PLAYORDER=
